<svg xmlns="http://www.w3.org/2000/svg" width="34.939" height="35.004" viewBox="0 0 34.939 35.004">
  <path id="phone_2_" data-name="phone (2)" d="M34.048,25.958v4.817a3.212,3.212,0,0,1-3.5,3.212,31.778,31.778,0,0,1-13.858-4.93,31.313,31.313,0,0,1-9.635-9.635A31.778,31.778,0,0,1,2.125,5.5,3.212,3.212,0,0,1,5.32,2h4.817a3.212,3.212,0,0,1,3.212,2.762,20.618,20.618,0,0,0,1.124,4.512,3.212,3.212,0,0,1-.723,3.388L11.711,14.7a25.693,25.693,0,0,0,9.635,9.635L23.385,22.3a3.212,3.212,0,0,1,3.388-.723A20.618,20.618,0,0,0,31.286,22.7a3.212,3.212,0,0,1,2.762,3.26Z" transform="translate(-0.611 -0.5)" fill="none" stroke="#967462" stroke-linecap="round" stroke-linejoin="round" stroke-width="3"/>
</svg>
