<svg xmlns="http://www.w3.org/2000/svg" width="35" height="35" viewBox="0 0 35 35">
  <g id="headphones_1_" data-name="headphones (1)" transform="translate(-1.5 -1.5)">
    <path id="Path_87" data-name="Path 87" d="M3,29.667V19a16,16,0,1,1,32,0V29.667" transform="translate(0 0)" fill="none" stroke="#967462" stroke-linecap="round" stroke-linejoin="round" stroke-width="3"/>
    <path id="Path_88" data-name="Path 88" d="M35,22.889a3.556,3.556,0,0,1-3.556,3.556H29.667a3.556,3.556,0,0,1-3.556-3.556V17.556A3.556,3.556,0,0,1,29.667,14H35Zm-32,0a3.556,3.556,0,0,0,3.556,3.556H8.333a3.556,3.556,0,0,0,3.556-3.556V17.556A3.556,3.556,0,0,0,8.333,14H3Z" transform="translate(0 8.556)" fill="none" stroke="#967462" stroke-linecap="round" stroke-linejoin="round" stroke-width="3"/>
  </g>
</svg>
